<?xml version="1.0" standalone="no"?>
<!DOCTYPE svg PUBLIC "-//W3C//DTD SVG 20010904//EN"
 "http://www.w3.org/TR/2001/REC-SVG-20010904/DTD/svg10.dtd">
<svg version="1.0" xmlns="http://www.w3.org/2000/svg"
 width="512.000000pt" height="512.000000pt" viewBox="0 0 512.000000 512.000000"
 preserveAspectRatio="xMidYMid meet">

<g transform="translate(0.000000,512.000000) scale(0.100000,-0.100000)"
fill="#000000" stroke="none">
<path d="M953 5071 c-28 -11 -71 -33 -95 -49 -24 -17 -205 -194 -404 -394
-327 -329 -363 -369 -390 -428 l-29 -65 0 -1906 0 -1905 37 -76 c45 -89 94
-138 187 -182 l66 -31 1610 0 1610 0 57 27 c112 52 202 165 227 286 8 37 11
380 11 1130 l0 1077 584 585 c616 618 613 614 651 745 13 44 16 82 13 151 -4
79 -10 103 -40 166 -51 106 -112 169 -214 220 -75 37 -95 42 -171 46 -101 5
-175 -9 -258 -50 -48 -24 -109 -79 -305 -274 -135 -134 -249 -244 -253 -244
-4 0 -7 186 -7 413 0 439 -3 475 -51 569 -34 66 -106 135 -178 171 l-66 32
-1270 2 c-1218 2 -1272 2 -1322 -16z m2559 -272 c58 -42 58 -38 58 -636 l0
-548 -726 -725 c-419 -419 -732 -739 -740 -757 -11 -25 -14 -92 -14 -295 0
-387 -19 -368 368 -368 203 0 270 3 295 14 18 8 202 184 416 399 212 212 388
384 393 381 4 -3 8 -421 8 -930 0 -1018 3 -974 -62 -1014 -33 -20 -46 -20
-1582 -20 l-1548 0 -39 39 -39 39 2 1813 3 1814 360 5 c391 5 390 5 425 63 19
30 20 53 20 383 0 193 3 354 7 357 3 4 537 7 1186 7 l1179 0 30 -21z m-2674
-351 l-3 -163 -162 -3 c-90 -1 -163 1 -163 5 0 10 313 323 323 323 4 0 6 -73
5 -162z m3865 -262 c39 -17 92 -71 106 -109 16 -43 13 -107 -8 -152 -10 -22
-44 -65 -75 -95 l-56 -55 -137 138 -138 137 60 61 c33 34 74 67 90 75 39 17
117 18 158 0z m-233 -603 c0 -4 -413 -421 -918 -926 l-918 -918 -134 3 -135 3
-3 135 -3 134 923 923 922 922 133 -133 c73 -74 133 -138 133 -143z"/>
<path d="M1419 4027 c-68 -46 -76 -142 -15 -203 25 -25 43 -33 87 -39 29 -3
421 -5 869 -3 757 3 817 4 847 21 84 45 85 182 3 231 -25 14 -110 16 -893 16
l-864 0 -34 -23z"/>
<path d="M622 3270 c-86 -53 -79 -190 12 -231 39 -18 88 -19 1016 -19 928 0
977 1 1016 19 91 41 98 178 12 231 -33 20 -48 20 -1028 20 -980 0 -995 0
-1028 -20z"/>
<path d="M662 2510 c-86 -21 -128 -122 -82 -197 39 -65 13 -63 720 -63 576 0
645 2 670 16 38 23 60 64 60 114 0 53 -22 95 -63 117 -29 17 -80 18 -652 20
-341 1 -635 -2 -653 -7z"/>
<path d="M630 1722 c-91 -48 -91 -189 0 -234 32 -17 83 -18 615 -18 558 0 581
1 612 20 62 37 82 124 43 188 -38 63 -30 62 -662 62 -537 0 -576 -1 -608 -18z"/>
<path d="M622 940 c-86 -53 -79 -190 12 -231 39 -18 96 -19 1296 -18 946 0
1264 3 1290 12 48 17 80 67 80 129 0 41 -5 54 -34 86 l-34 37 -1289 3 c-1278
2 -1288 2 -1321 -18z"/>
</g>
</svg>
