<?xml version="1.0" standalone="no"?>
<!DOCTYPE svg PUBLIC "-//W3C//DTD SVG 20010904//EN"
 "http://www.w3.org/TR/2001/REC-SVG-20010904/DTD/svg10.dtd">
<svg version="1.0" xmlns="http://www.w3.org/2000/svg"
 width="224.000000pt" height="224.000000pt" viewBox="0 0 224.000000 224.000000"
 preserveAspectRatio="xMidYMid meet">
<metadata>
Created by potrace 1.15, written by Peter Selinger 2001-2017
</metadata>
<g transform="translate(0.000000,224.000000) scale(0.100000,-0.100000)"
fill="#000000" stroke="none">
<path d="M973 2229 c-114 -14 -227 -50 -348 -109 -226 -111 -391 -276 -505
-505 -97 -196 -134 -395 -112 -602 16 -154 44 -251 112 -388 114 -228 278
-393 505 -505 197 -97 395 -134 602 -112 154 16 251 44 388 112 238 118 404
288 519 531 138 293 138 645 0 938 -115 244 -281 413 -519 531 -206 102 -419
138 -642 109z m297 -180 c106 -17 252 -72 345 -130 200 -125 340 -311 412
-546 24 -80 27 -102 27 -253 0 -151 -3 -173 -27 -254 -33 -106 -91 -225 -148
-303 -97 -131 -252 -252 -400 -312 l-74 -30 -6 122 c-6 134 -16 167 -60 213
l-30 31 58 6 c204 22 362 140 415 311 18 57 22 96 23 196 0 116 -2 129 -28
185 -15 32 -39 74 -52 91 -21 27 -23 37 -15 59 13 35 11 149 -3 205 l-12 45
-53 0 c-42 -1 -71 -10 -152 -52 l-100 -51 -68 15 c-92 20 -297 20 -391 -1
l-74 -16 -48 29 c-78 49 -150 75 -203 76 -50 0 -50 0 -62 -40 -15 -49 -18
-174 -4 -210 8 -21 5 -33 -24 -73 -51 -73 -68 -126 -73 -232 -6 -110 13 -216
52 -296 32 -66 113 -147 181 -180 58 -28 183 -64 227 -64 15 0 27 -3 27 -6 0
-3 -13 -22 -29 -42 -38 -47 -50 -102 -51 -224 0 -54 -2 -98 -4 -98 -13 0 -96
34 -156 64 -230 116 -396 319 -476 581 -25 81 -28 105 -28 250 -1 138 2 171
22 238 97 337 332 578 655 672 121 35 281 45 407 24z"/>
</g>
</svg>
