<?xml version="1.0" standalone="no"?>
<!DOCTYPE svg PUBLIC "-//W3C//DTD SVG 20010904//EN"
 "http://www.w3.org/TR/2001/REC-SVG-20010904/DTD/svg10.dtd">
<svg version="1.0" xmlns="http://www.w3.org/2000/svg"
 width="225.000000pt" height="225.000000pt" viewBox="0 0 225.000000 225.000000"
 preserveAspectRatio="xMidYMid meet">
<metadata>
Created by potrace 1.15, written by Peter Selinger 2001-2017
</metadata>
<g transform="translate(0.000000,225.000000) scale(0.100000,-0.100000)"
fill="#000000" stroke="none">
<path d="M105 2226 c-35 -15 -83 -67 -90 -99 -3 -12 -4 -471 -3 -1019 3 -989
3 -997 24 -1024 11 -15 33 -37 48 -48 27 -21 33 -21 1041 -21 1008 0 1014 0
1041 21 15 11 37 33 48 48 21 27 21 35 24 1035 l2 1008 -22 33 c-13 18 -36 43
-51 54 -28 21 -31 21 -1030 23 -818 2 -1008 0 -1032 -11z m505 -320 c72 -47
106 -142 80 -220 -44 -133 -215 -181 -313 -88 -109 103 -77 277 60 328 52 19
127 11 173 -20z m1091 -503 c55 -24 113 -75 144 -123 61 -97 75 -214 75 -627
l0 -313 -169 0 -170 0 -3 333 c-4 366 -5 378 -67 429 -58 49 -166 46 -229 -7
-62 -52 -66 -76 -70 -432 l-3 -323 -170 0 -169 0 2 533 3 532 163 3 162 2 0
-70 0 -70 41 45 c85 92 150 116 304 112 84 -3 121 -8 156 -24z m-1031 -528 l0
-535 -165 0 -165 0 0 535 0 535 165 0 165 0 0 -535z"/>
</g>
</svg>
