<?xml version="1.0" standalone="no"?>
<!DOCTYPE svg PUBLIC "-//W3C//DTD SVG 20010904//EN"
 "http://www.w3.org/TR/2001/REC-SVG-20010904/DTD/svg10.dtd">
<svg version="1.0" xmlns="http://www.w3.org/2000/svg"
 width="225.000000pt" height="225.000000pt" viewBox="0 0 225.000000 225.000000"
 preserveAspectRatio="xMidYMid meet">
<metadata>
Created by potrace 1.15, written by Peter Selinger 2001-2017
</metadata>
<g transform="translate(0.000000,225.000000) scale(0.100000,-0.100000)"
fill="#000000" stroke="none">
<path d="M192 1951 c-70 -24 -118 -65 -156 -131 l-31 -55 0 -640 0 -640 31
-55 c37 -66 97 -114 166 -135 78 -23 1768 -23 1846 0 69 21 129 69 166 135
l31 55 0 640 0 640 -31 55 c-17 30 -50 70 -73 87 -84 65 -54 63 -1020 63 -822
-1 -879 -2 -929 -19z m1797 -128 c0 -13 -850 -736 -864 -736 -14 0 -864 723
-864 736 -1 4 388 7 864 7 476 0 865 -3 864 -7z m-1542 -350 c159 -136 288
-251 288 -256 0 -11 -577 -675 -587 -676 -5 -1 -8 265 -8 589 0 384 3 590 10
590 5 0 139 -111 297 -247z m1663 -343 c0 -324 -3 -590 -7 -589 -11 1 -588
664 -588 676 0 12 571 503 585 503 7 0 10 -205 10 -590z m-1134 -110 c153
-131 145 -131 299 1 84 72 122 99 131 93 32 -21 594 -676 589 -684 -8 -13
-1732 -14 -1740 0 -6 9 583 690 597 690 4 0 60 -45 124 -100z"/>
</g>
</svg>
