<?xml version="1.0" standalone="no"?>
<!DOCTYPE svg PUBLIC "-//W3C//DTD SVG 20010904//EN"
 "http://www.w3.org/TR/2001/REC-SVG-20010904/DTD/svg10.dtd">
<svg version="1.0" xmlns="http://www.w3.org/2000/svg"
 width="217.000000pt" height="233.000000pt" viewBox="0 0 217.000000 233.000000"
 preserveAspectRatio="xMidYMid meet">
<metadata>
Created by potrace 1.15, written by Peter Selinger 2001-2017
</metadata>
<g transform="translate(0.000000,233.000000) scale(0.100000,-0.100000)"
fill="#000000" stroke="none">
<path d="M421 2314 c-19 -8 -59 -36 -90 -62 -167 -141 -230 -221 -280 -359
-138 -377 23 -822 478 -1326 403 -447 810 -634 1177 -542 110 28 215 89 333
196 108 97 131 130 131 189 0 46 -52 120 -146 209 -168 159 -272 221 -371 221
-67 0 -115 -28 -226 -130 -127 -118 -154 -128 -254 -94 -135 46 -366 269 -508
489 -126 196 -133 308 -25 396 204 166 226 196 218 307 -7 87 -36 151 -142
311 -87 131 -139 185 -198 202 -43 12 -56 11 -97 -7z"/>
</g>
</svg>
